REM DIRINDEX 1\2,1\3,1\4,1\5,1\6
REM DIRNAME "folder01","folder02","folder03","folder04","folder05","folder06"
TITLE ""
FILE "Disc3Track22.mp3" MP3
  TRACK 01 AUDIO
    TITLE "3:cjc161_04738"
    INDEX 01 00:00:00
  TRACK 02 AUDIO
    TITLE "4:cjc161_04739"
    INDEX 01 00:01:04
  TRACK 03 AUDIO
    TITLE "5:cjc161_04740"
    INDEX 01 00:05:74
  TRACK 04 AUDIO
    TITLE "6:cjc161_04741"
    INDEX 01 00:07:16
  TRACK 05 AUDIO
    TITLE "0:"
    INDEX 01 00:12:23
  TRACK 06 AUDIO
    TITLE "3:cjc161_04742"
    INDEX 01 00:12:57
  TRACK 07 AUDIO
    TITLE "4:cjc161_04743"
    INDEX 01 00:13:68
  TRACK 08 AUDIO
    TITLE "5:cjc161_04744"
    INDEX 01 00:15:59
  TRACK 09 AUDIO
    TITLE "6:cjc161_04745"
    INDEX 01 00:16:72
  TRACK 10 AUDIO
    TITLE "0:"
    INDEX 01 00:19:72
  TRACK 11 AUDIO
    TITLE "3:cjc161_04746"
    INDEX 01 00:20:31
  TRACK 12 AUDIO
    TITLE "4:cjc161_04747"
    INDEX 01 00:21:50
  TRACK 13 AUDIO
    TITLE "5:cjc161_04748"
    INDEX 01 00:23:64
  TRACK 14 AUDIO
    TITLE "6:cjc161_04749"
    INDEX 01 00:25:06
  TRACK 15 AUDIO
    TITLE "0:"
    INDEX 01 00:26:66
  TRACK 16 AUDIO
    TITLE "3:cjc161_04750"
    INDEX 01 00:27:23
  TRACK 17 AUDIO
    TITLE "4:cjc161_04751"
    INDEX 01 00:28:52
  TRACK 18 AUDIO
    TITLE "5:cjc161_04752"
    INDEX 01 00:31:42
  TRACK 19 AUDIO
    TITLE "6:cjc161_04753"
    INDEX 01 00:32:69
  TRACK 20 AUDIO
    TITLE "0:"
    INDEX 01 00:35:22
  TRACK 21 AUDIO
    TITLE "3:cjc161_04754"
    INDEX 01 00:35:54
  TRACK 22 AUDIO
    TITLE "4:cjc161_04755"
    INDEX 01 00:37:08
  TRACK 23 AUDIO
    TITLE "5:cjc161_04756"
    INDEX 01 00:38:74
  TRACK 24 AUDIO
    TITLE "6:cjc161_04757"
    INDEX 01 00:40:27
  TRACK 25 AUDIO
    TITLE "0:"
    INDEX 01 00:42:15
  TRACK 26 AUDIO
    TITLE "3:cjc161_04758"
    INDEX 01 00:42:46
  TRACK 27 AUDIO
    TITLE "4:cjc161_04759"
    INDEX 01 00:44:00
  TRACK 28 AUDIO
    TITLE "5:cjc161_04760"
    INDEX 01 00:46:26
  TRACK 29 AUDIO
    TITLE "6:cjc161_04761"
    INDEX 01 00:47:53
  TRACK 30 AUDIO
    TITLE "0:"
    INDEX 01 00:49:52
  TRACK 31 AUDIO
    TITLE "3:cjc161_04762"
    INDEX 01 00:50:08
  TRACK 32 AUDIO
    TITLE "4:cjc161_04763"
    INDEX 01 00:51:41
  TRACK 33 AUDIO
    TITLE "5:cjc161_04764"
    INDEX 01 00:54:00
  TRACK 34 AUDIO
    TITLE "6:cjc161_04765"
    INDEX 01 00:55:29
  TRACK 35 AUDIO
    TITLE "0:"
    INDEX 01 00:57:40
  TRACK 36 AUDIO
    TITLE "3:cjc161_04766"
    INDEX 01 00:57:71
  TRACK 37 AUDIO
    TITLE "4:cjc161_04767"
    INDEX 01 00:59:33
  TRACK 38 AUDIO
    TITLE "5:cjc161_04768"
    INDEX 01 01:01:20
  TRACK 39 AUDIO
    TITLE "6:cjc161_04769"
    INDEX 01 01:02:54
  TRACK 40 AUDIO
    TITLE "0:"
    INDEX 01 01:04:48
  TRACK 41 AUDIO
    TITLE "3:cjc161_04770"
    INDEX 01 01:05:00
  TRACK 42 AUDIO
    TITLE "4:cjc161_04771"
    INDEX 01 01:06:37
  TRACK 43 AUDIO
    TITLE "5:cjc161_04772"
    INDEX 01 01:07:73
  TRACK 44 AUDIO
    TITLE "0:"
    INDEX 01 01:09:35
  TRACK 45 AUDIO
    TITLE "3:cjc161_04773"
    INDEX 01 01:09:66
  TRACK 46 AUDIO
    TITLE "4:cjc161_04774"
    INDEX 01 01:11:20
  TRACK 47 AUDIO
    TITLE "5:cjc161_04775"
    INDEX 01 01:13:45
  TRACK 48 AUDIO
    TITLE "6:cjc161_04776"
    INDEX 01 01:14:71
  TRACK 49 AUDIO
    TITLE "0:"
    INDEX 01 01:18:16
  TRACK 50 AUDIO
    TITLE "3:cjc161_04777"
    INDEX 01 01:18:50
  TRACK 51 AUDIO
    TITLE "4:cjc161_04778"
    INDEX 01 01:20:01
  TRACK 52 AUDIO
    TITLE "5:cjc161_04779"
    INDEX 01 01:22:02
  TRACK 53 AUDIO
    TITLE "0:"
    INDEX 01 01:23:31
  TRACK 54 AUDIO
    TITLE "3:cjc161_04780"
    INDEX 01 01:23:72
  TRACK 55 AUDIO
    TITLE "4:cjc161_04781"
    INDEX 01 01:25:24
  TRACK 56 AUDIO
    TITLE "5:cjc161_04782"
    INDEX 01 01:27:47
  TRACK 57 AUDIO
    TITLE "6:cjc161_04783"
    INDEX 01 01:28:73
  TRACK 58 AUDIO
    TITLE "0:"
    INDEX 01 01:30:74
  TRACK 59 AUDIO
    TITLE "3:cjc161_04784"
    INDEX 01 01:31:31
  TRACK 60 AUDIO
    TITLE "4:cjc161_04785"
    INDEX 01 01:32:63
  TRACK 61 AUDIO
    TITLE "5:cjc161_04786"
    INDEX 01 01:35:09
  TRACK 62 AUDIO
    TITLE "6:cjc161_04787"
    INDEX 01 01:36:42
  TRACK 63 AUDIO
    TITLE "0:"
    INDEX 01 01:40:73
